<?xml version="1.0" encoding="utf-8"?>
<!-- Generator: Adobe Illustrator 24.2.3, SVG Export Plug-In . SVG Version: 6.00 Build 0)  -->
<svg version="1.1" id="Layer_1" xmlns="http://www.w3.org/2000/svg" xmlns:xlink="http://www.w3.org/1999/xlink" x="0px" y="0px"
	 viewBox="0 0 25 25" style="enable-background:new 0 0 25 25;" xml:space="preserve">
<style type="text/css">
	.st0{fill:rgb(30, 35, 108);}
</style>
<path class="st0" d="M12.49,2.2c1.84,0,3.67,0.01,5.51-0.01c0.27,0,0.41,0.07,0.55,0.31c1.83,3.21,3.66,6.42,5.51,9.62
	c0.12,0.21,0.14,0.37,0.01,0.6c-1.84,3.2-3.68,6.41-5.51,9.62c-0.14,0.25-0.29,0.34-0.58,0.33c-3.66-0.01-7.31-0.01-10.97,0
	c-0.27,0-0.41-0.07-0.55-0.31c-1.83-3.21-3.66-6.42-5.51-9.62c-0.12-0.21-0.14-0.37-0.01-0.6c1.84-3.2,3.68-6.41,5.51-9.62
	C6.59,2.28,6.74,2.19,7.02,2.2C8.85,2.21,10.67,2.2,12.49,2.2L12.49,2.2z M17.99,12.01c0.01-2.98-2.36-5.34-5.36-5.35
	c-2.91-0.01-5.32,2.38-5.34,5.31c-0.02,2.94,2.41,5.37,5.37,5.36C15.59,17.33,17.98,14.94,17.99,12.01z"/>
</svg>
