<?xml version="1.0" encoding="utf-8"?>
<!-- Generator: Adobe Illustrator 24.2.3, SVG Export Plug-In . SVG Version: 6.00 Build 0)  -->
<svg version="1.1" id="Layer_1" xmlns="http://www.w3.org/2000/svg" xmlns:xlink="http://www.w3.org/1999/xlink" x="0px" y="0px"
	 viewBox="0 0 150 150" style="enable-background:new 0 0 150 150;" xml:space="preserve">
<style type="text/css">
	.st0{fill:#282828;}
	.st1{fill:none;stroke:#DDDDDD;stroke-miterlimit:10;}
	.st2{fill:#DDDDDD;}
	.st3{fill:#303030;}
	.st4{fill:#212121;}
	.st5{fill:none;stroke:#A8A8A8;stroke-miterlimit:10;}
	.st6{fill:#FFFFFF;}
</style>
<path class="st0" d="M72.4,5.4c0.6,0,1.2,0,1.8,0c-0.2,0.7-0.4,1.4-0.5,2.2c0.8,0,1.5,0,2.2,0c0.2,0,0.4-0.2,0.4-0.3
	c0.2-0.6,0.3-1.3,0.5-1.9c0.4,0,0.8,0,1.2,0c1.5,0.1,2.9,0.3,4.4,0.4c-0.3,0.8-0.5,1.4-0.7,2.1c1.5,0.3,1.5,0.3,2.1-0.9
	C84,6.8,84,6.5,84.2,6.4c0.1-0.1,0.4-0.3,0.5-0.3c1.2,0.2,2.5,0.4,3.8,0.6c-0.4,0.7-0.7,1.4-1.1,2.1c0.9,0.2,1.8,0.5,2.5,0.4
	c0.4-0.1,0.6-1,1-1.6c0,0,0,0,0-0.1c0.1-0.1,0.3-0.2,0.4-0.2c1.7,0.5,3.4,0.9,5.2,1.4c-0.5,0.7-0.8,1.3-1.2,1.9
	c1.3,0.7,1.3,0.7,2.2-0.4c0.2-0.2,0.3-0.4,0.5-0.6c0.1-0.1,0.3-0.2,0.5-0.1c1.2,0.4,2.4,0.9,3.7,1.4c-0.5,0.6-1,1.2-1.5,1.8
	c0.7,0.3,1.4,0.7,2.1,0.9c0.1,0.1,0.4,0,0.6-0.2c0.4-0.4,0.8-0.9,1.2-1.5c1.7,0.9,3.3,1.7,5.2,2.7c-0.7,0.6-1.2,1.1-1.8,1.6
	c0.5,0.3,0.9,0.5,1.3,0.8c0.5-0.4,1-0.8,1.5-1.2c0.1-0.1,0.5-0.2,0.6-0.1c1.1,0.7,2.1,1.4,3.3,2.1c-0.6,0.5-1.2,1-1.8,1.5
	c0.7,0.5,1.4,1,2,1.4h0.1c0.5-0.4,1-0.7,1.5-1.1c0,0,0,0,0.1,0c0.2,0,0.4-0.1,0.5,0c1.4,1.1,2.7,2.2,4.1,3.4
	c-0.7,0.5-1.3,0.9-1.9,1.3c0.2,0.2,0.4,0.4,0.6,0.5c0.4,0.5,0.8,0.5,1.3,0.2c0.4-0.3,0.9-0.5,1.2-0.6c1.1,1,2,2,3.1,2.9
	c-0.7,0.3-1.3,0.7-2,1c0.6,0.6,1.1,1.2,1.6,1.8c0.1,0.1,0.4,0.1,0.5,0c0.6-0.2,1.1-0.5,1.7-0.8c1.2,1.5,2.3,2.9,3.5,4.4
	c-0.8,0.3-1.4,0.6-2.1,0.8c0.7,1.3,0.7,1.3,2,1c0.2-0.1,0.5-0.2,0.7-0.2s0.5,0.1,0.6,0.2c0.7,1,1.4,2.1,2.1,3.2
	c-0.8,0.2-1.5,0.4-2.2,0.6c0.5,0.8,0.9,1.5,1.3,2.3c0.8-0.2,1.5-0.4,2.3-0.5c0.8,1.7,1.7,3.4,2.5,5.1c-0.8,0.1-1.5,0.3-2.2,0.4
	c0.4,1.5,0.4,1.5,1.8,1.4c0.3,0,0.5-0.1,0.8,0c0.2,0,0.4,0.1,0.5,0.3c0.5,1.2,0.9,2.4,1.4,3.6c-0.8,0.1-1.5,0.1-2.3,0.2
	c0.2,0.7,0.5,1.4,0.6,2c0.1,0.4,0.3,0.5,0.7,0.5c0.6-0.1,1.1-0.1,1.8-0.1c0.5,1.8,0.9,3.6,1.4,5.5c-0.8,0-1.5,0-2.2,0
	c0,1.4,0.1,1.5,1.4,1.7c0.3,0,0.6,0.1,0.8,0.1c0.1,0,0.4,0.2,0.4,0.3c0.2,1.3,0.4,2.6,0.6,3.9c-0.5-0.1-0.8-0.1-1.1-0.2
	c-0.4-0.1-0.7-0.1-1.1-0.2c0,0.3,0,0.5,0,0.7c0.1,0.6,0,1.4,0.3,1.8s1.1,0.3,1.7,0.5c0.2,0.1,0.4,0.3,0.5,0.4
	c0.1,1.7,0.2,3.5,0.3,5.3c-0.8-0.2-1.5-0.3-2.2-0.5c-0.2,1.5-0.2,1.5,1.2,2c0.2,0.1,0.5,0.2,0.7,0.3c0.1,0.1,0.3,0.3,0.3,0.4
	c-0.1,1.3-0.1,2.5-0.2,3.9c-0.8-0.3-1.4-0.5-2.2-0.8c-0.1,0.8-0.2,1.6-0.2,2.3c0,0.1,0.2,0.4,0.4,0.4c0.5,0.2,1.1,0.4,1.7,0.7
	c-0.3,1.9-0.6,3.7-1,5.6c-0.8-0.4-1.4-0.7-2-1c-0.5,1.5-0.5,1.5,0.7,2.2c0.2,0.1,0.4,0.3,0.6,0.4c0.1,0.1,0.2,0.3,0.2,0.4
	c-0.3,1.3-0.7,2.5-1,3.8c-0.7-0.4-1.3-0.8-1.9-1.2c-0.2,0.7-0.4,1.4-0.7,2c-0.1,0.4,0,0.5,0.3,0.7c0.5,0.3,1,0.6,1.5,1
	c-0.7,1.8-1.4,3.5-2.1,5.3c-0.7-0.5-1.2-1-1.8-1.4c-0.8,1.4-0.8,1.4,0.3,2.4c0.2,0.2,0.3,0.3,0.5,0.5c0.1,0.1,0.2,0.3,0.1,0.4
	c-0.6,1.2-1.2,2.3-1.9,3.6c-0.6-0.6-1.1-1.1-1.6-1.7c-0.4,0.6-0.7,1.2-1.1,1.9c-0.1,0.2,0,0.5,0.1,0.7c0.4,0.4,0.9,0.8,1.4,1.2
	c-1.2,1.7-2.2,3.3-3.3,4.9c-0.5-0.6-1-1.2-1.5-1.7c-1,1.2-1,1.2-0.3,2.4c0.1,0.2,0.3,0.4,0.4,0.6c0.1,0.1,0.1,0.3,0,0.4
	c-0.8,1-1.6,2-2.5,3.1c-0.5-0.7-0.8-1.3-1.3-1.9c-0.6,0.6-1.1,1.2-1.6,1.8c-0.1,0.1,0,0.4,0.1,0.5c0.3,0.5,0.6,1,0.9,1.4
	c-1.3,1.4-2.6,2.8-3.9,4.2c-0.4-0.8-0.8-1.4-1.1-2.1c-1.2,1-1.2,1-0.7,2.4c0.1,0.2,0.2,0.4,0.2,0.6s0,0.4-0.1,0.5
	c-1,0.8-2,1.6-3,2.5c-0.3-0.8-0.5-1.4-0.8-2.2c-0.7,0.5-1.3,0.9-1.9,1.4c-0.1,0.1-0.1,0.4-0.1,0.6c0.2,0.6,0.4,1.1,0.6,1.8
	c-1.6,1-3.2,2-4.8,3c-0.2-0.8-0.5-1.5-0.7-2.2c-1.4,0.7-1.4,0.7-1.2,2.2c0,0.2,0.1,0.4,0.1,0.6c0,0.2-0.1,0.4-0.2,0.4
	c-1.1,0.6-2.3,1.2-3.5,1.8c-0.1-0.8-0.2-1.5-0.4-2.3c-0.7,0.3-1.3,0.6-2,0.9c-0.3,0.1-0.4,0.3-0.4,0.7c0.1,0.6,0.2,1.2,0.3,1.8
	c-1.8,0.7-3.5,1.3-5.3,2c-0.1-0.8-0.1-1.5-0.2-2.2c-1.6,0.3-1.6,0.3-1.6,1.7c0,0.3,0,0.5,0,0.8c0,0.1-0.2,0.3-0.3,0.4
	c-1.2,0.3-2.5,0.7-3.8,1c0-0.5,0-0.8,0.1-1.2c0-0.4,0-0.7,0.1-1.1c-0.7,0.1-1.3,0.3-2,0.4c-0.5,0.1-0.6,0.3-0.6,0.8
	c-0.1,1.6-0.1,1.7-1.7,1.9c-1.3,0.2-2.6,0.4-4,0.5c0.1-0.8,0.2-1.5,0.3-2.2c-1.5-0.1-1.5-0.1-1.9,1.2c-0.1,0.3-0.1,0.5-0.2,0.8
	c-0.1,0.1-0.2,0.3-0.4,0.3c-1.3,0.1-2.6,0.1-3.9,0.2c0.2-0.8,0.4-1.5,0.6-2.2c-0.8,0-1.5,0-2.2,0c-0.2,0-0.4,0.2-0.5,0.4
	c-0.2,0.6-0.3,1.2-0.5,1.8c-1.9-0.1-3.7-0.3-5.7-0.4c0.3-0.8,0.5-1.4,0.7-2.1c-1.5-0.4-1.5-0.4-2.1,0.8c-0.1,0.2-0.2,0.5-0.4,0.7
	c-0.1,0.1-0.3,0.2-0.4,0.2c-1.3-0.2-2.6-0.4-3.9-0.6c0.4-0.7,0.7-1.4,1.1-2.1c-0.8-0.2-1.5-0.3-2.3-0.5c-0.1,0-0.4,0.2-0.5,0.3
	c-0.3,0.5-0.6,1.1-0.9,1.7c-1.8-0.5-3.6-1-5.5-1.6c0.4-0.7,0.8-1.3,1.2-1.9c-1.4-0.6-1.4-0.6-2.4,0.5c-0.1,0.2-0.3,0.4-0.4,0.5
	c-0.1,0.1-0.3,0.2-0.5,0.1c-1.2-0.4-2.4-0.9-3.6-1.4c0.5-0.6,0.9-1.2,1.4-1.8c-0.8-0.4-1.6-0.7-2.4-1.1c-0.5,0.6-1,1.2-1.5,1.8
	c-1.7-0.9-3.3-1.8-4.9-2.6c-0.1-0.1-0.1-0.2-0.2-0.3c0.6-0.4,1.2-0.9,1.8-1.3c-1.4-1-1.4-1-2.6-0.1c-0.2,0.1-0.3,0.3-0.5,0.4
	c-0.2,0.1-0.4,0.1-0.5,0c-1.1-0.7-2.1-1.4-3.2-2.1c0.6-0.5,1.2-1,1.8-1.5c-0.7-0.5-1.4-1-2.1-1.5c-0.6,0.5-1.2,0.9-1.8,1.4
	c-1.4-1.2-2.9-2.4-4.3-3.6c0.7-0.5,1.3-0.9,1.9-1.3c-1.1-1.2-1.1-1.2-2.4-0.5c-0.2,0.1-0.4,0.2-0.6,0.3c-0.1,0-0.4,0-0.5-0.1
	c-0.9-0.9-1.8-1.8-2.7-2.8c0.7-0.4,1.4-0.7,2.1-1.1c-0.6-0.7-1.1-1.5-1.8-1.8c-0.4-0.2-1.1,0.5-1.7,0.7c-0.1,0.1-0.4,0-0.5-0.1
	c-1.1-1.4-2.2-2.7-3.3-4.2c0.5-0.2,0.8-0.3,1.1-0.4c0.3-0.1,0.7-0.3,1-0.4c-0.8-1.3-0.8-1.3-2.2-1c-0.2,0.1-0.4,0.1-0.7,0.2
	c-0.1,0-0.4,0-0.4-0.1c-0.7-1.1-1.4-2.2-2.1-3.3c0.8-0.2,1.5-0.4,2.2-0.6c-0.5-0.8-0.9-1.5-1.3-2.3c-0.7,0.2-1.2,0.3-1.8,0.5
	c-0.2,0-0.4,0-0.5-0.1c-0.8-1.6-1.6-3.2-2.4-4.8c0.8-0.2,1.5-0.3,2.2-0.4c-0.4-1.5-0.4-1.5-1.8-1.4c-0.3,0-0.6,0-0.8,0
	c-0.1,0-0.4-0.1-0.4-0.2c-0.5-1.2-0.9-2.4-1.4-3.6c0.8-0.1,1.5-0.1,2.3-0.1c-0.1-0.2-0.1-0.4-0.2-0.6C12,95,12,94.2,11.6,93.9
	c-0.4-0.3-1.2-0.1-1.8-0.1c-0.2,0-0.5-0.1-0.5-0.3c-0.5-1.7-0.9-3.4-1.3-5.1c0.8,0,1.5,0,2.2,0c-0.1-1.5-0.1-1.5-1.5-1.7
	c-0.2,0-0.5-0.1-0.7-0.1c-0.1,0-0.3-0.2-0.4-0.3c-0.4-1.7-0.6-3-0.8-4.3c0.8,0.1,1.5,0.2,2.3,0.3C9,81.9,9,81.7,9,81.4
	c-0.1-1.6-0.1-1.6-1.7-1.9c-0.1,0-0.2,0-0.3-0.1c-0.2-0.2-0.4-0.3-0.5-0.5c-0.1-0.6-0.1-1.1-0.2-1.7c0-1.1,0-2.3,0-3.4
	C7,74,7.7,74.1,8.5,74.3c0-0.4,0-0.8,0-1.2c0-0.2-0.2-0.4-0.3-0.5c-0.6-0.3-1.3-0.5-1.9-0.7c0-0.2,0-0.4,0-0.6
	c0.1-1.2,0.2-2.4,0.3-3.6C7.3,68,8,68.2,8.7,68.5C8.9,67.6,9.2,66.7,9,66c-0.1-0.4-1-0.6-1.6-0.8C7.1,65,7,64.8,7.1,64.5
	c0.2-1,0.3-2,0.5-3.1c0.1-0.7,0.3-1.3,0.4-2c0.7,0.4,1.4,0.7,2,1c0.5-1.5,0.5-1.5-0.7-2.2c-0.2-0.1-0.4-0.3-0.6-0.4
	c-0.1-0.1-0.2-0.3-0.2-0.4c0.3-1.3,0.7-2.5,1-3.8c0.7,0.4,1.3,0.8,1.9,1.3c0.2-0.7,0.4-1.4,0.7-2c0.1-0.4,0-0.5-0.3-0.7
	c-0.5-0.3-1-0.7-1.5-1c0.7-1.8,1.4-3.5,2.1-5.2c0.7,0.5,1.2,0.9,1.8,1.4c0.8-1.3,0.8-1.3-0.2-2.3c-0.2-0.2-0.4-0.3-0.5-0.5
	c-0.1-0.1-0.1-0.3-0.1-0.4c0.6-1.2,1.2-2.3,1.9-3.7c0.6,0.7,1.1,1.2,1.6,1.8c0.5-0.8,0.9-1.5,1.4-2.4c-0.6-0.4-1.2-0.9-1.8-1.4
	c1.2-1.7,2.2-3.2,3.3-4.8c0.5,0.6,1,1.2,1.4,1.7c1.1-1.1,1.1-1.1,0.3-2.2c-0.1-0.2-0.3-0.5-0.4-0.7c-0.1-0.1-0.1-0.4,0-0.5
	c0.8-1,1.6-2,2.5-3c0.5,0.7,0.8,1.3,1.3,1.9c0.6-0.7,1.2-1.3,1.8-1.9c-0.4-0.7-0.8-1.3-1.1-1.7c1.3-1.5,2.5-2.8,3.8-4.3
	c0.4,0.8,0.8,1.5,1.1,2.1c1.2-0.9,1.2-0.9,0.7-2.2c-0.1-0.2-0.2-0.4-0.2-0.6s0-0.4,0.1-0.5c1-0.8,2-1.6,3.1-2.5
	c0.3,0.8,0.6,1.4,0.9,2.1c0.7-0.5,1.4-1,2.1-1.5c-0.2-0.6-0.5-1.2-0.6-1.8c0-0.2,0-0.5,0.1-0.5c1.5-1,3-1.9,4.5-2.9
	c0.2,0.8,0.4,1.5,0.6,2.2c1.4-0.5,1.4-0.5,1.2-1.8c0-0.3-0.1-0.5-0.1-0.8c0-0.2,0.1-0.5,0.3-0.6c1.1-0.6,2.2-1.1,3.4-1.7
	c0.1,0.8,0.3,1.5,0.4,2.3c0.2-0.1,0.4-0.2,0.6-0.3c0.6-0.3,1.4-0.4,1.6-0.8c0.3-0.4-0.1-1.2-0.1-1.8c0-0.2,0.1-0.5,0.2-0.5
	c1.6-0.6,3.3-1.2,5-1.9c0.1,0.8,0.1,1.5,0.2,2.2C55.9,11,56,11,56.1,9.7c0-0.3,0-0.6,0.1-0.8c0-0.2,0.1-0.4,0.2-0.4
	c1.2-0.3,2.5-0.7,3.8-1c0,0.8-0.1,1.5-0.1,2.3c0.7-0.1,1.4-0.3,2-0.4c0.4-0.1,0.6-0.3,0.6-0.7c0.1-1.7,0.1-1.7,1.8-2
	c1.3-0.2,2.5-0.3,3.9-0.5c-0.1,0.5-0.1,0.8-0.2,1.1c0,0.4-0.1,0.7-0.1,1.1C69.4,8,69.4,8,69.7,6.7c0-0.1,0.1-0.2,0.1-0.3
	c0-0.8,0.5-1,1.2-0.9C71.5,5.5,71.9,5.4,72.4,5.4z M111.9,74.2c0-20.2-16.4-36.7-36.6-36.7S38.6,53.9,38.5,74.1
	c0,20.3,16.4,36.8,36.6,36.8C95.4,110.9,111.9,94.5,111.9,74.2z"/>
<circle class="st1" cx="75.2" cy="74.2" r="40"/>
<circle class="st2" cx="75.3" cy="74.2" r="36.7"/>
<path class="st3" d="M68.2,71.1c0,0.7-0.6,1.3-1.3,1.3c-0.7,0-1.3-0.6-1.3-1.3c0-0.7,0.6-1.3,1.3-1.3C67.6,69.9,68.2,70.4,68.2,71.1
	z"/>
<path class="st3" d="M74.7,65.6c0,0.7-0.6,1.3-1.3,1.3c-0.7,0-1.3-0.6-1.3-1.3c0-0.7,0.6-1.3,1.3-1.3S74.7,64.9,74.7,65.6z"/>
<path class="st3" d="M69.2,78.7c0,0.7-0.6,1.3-1.3,1.3c-0.7,0-1.3-0.6-1.3-1.3c0-0.7,0.6-1.3,1.3-1.3C68.7,77.4,69.2,78,69.2,78.7z"
	/>
<path class="st3" d="M77.6,82.3c0,0.7-0.6,1.3-1.3,1.3c-0.7,0-1.3-0.6-1.3-1.3c0-0.7,0.6-1.3,1.3-1.3S77.6,81.6,77.6,82.3z"/>
<path class="st3" d="M83.7,76.5c0,0.7-0.6,1.3-1.3,1.3c-0.7,0-1.3-0.6-1.3-1.3c0-0.7,0.6-1.3,1.3-1.3S83.7,75.8,83.7,76.5z"/>
<path class="st3" d="M82.4,68.9c0,0.7-0.6,1.3-1.3,1.3c-0.7,0-1.3-0.6-1.3-1.3c0-0.7,0.6-1.3,1.3-1.3S82.4,68.2,82.4,68.9z"/>
<path class="st4" d="M67.1,104c-0.4-1.5-1.8-3.1-2.7-4.4c-1.2-1.9-2.3-3.7-3.4-5.6c-1.3-2.3-1.9-5.9-4-7.5c-2.2-1.6-5.4-1.1-6.9,1.2
	l-2.3,3.2c-0.8,1.2-1.2,2.9-0.8,4.2c0.5,1.6,2.2,2.7,3.4,3.5c2.6,1.8,5.2,3.7,7.8,5.5c2.1,1.5,5.7,5.2,8.2,2.3
	C67.1,105.8,67.3,104.9,67.1,104z"/>
<path class="st4" d="M44.5,74.5c1.4-0.7,2.5-2.5,3.6-3.7c1.5-1.6,3.1-3.2,4.6-4.7c1.9-1.8,5.3-3.2,6.3-5.7c1-2.6-0.3-5.5-2.8-6.5
	l-3.7-1.4c-1.3-0.5-3.1-0.5-4.3,0.3c-1.4,0.8-2,2.8-2.6,4.2c-1.1,3-2.3,6-3.4,8.9c-0.9,2.4-3.7,6.8-0.2,8.5
	C42.7,74.9,43.7,74.9,44.5,74.5z"/>
<path class="st4" d="M66.3,45c1.1,1.1,3.2,1.7,4.5,2.4c2,1,3.9,2,5.8,3.1c2.3,1.3,4.6,4.1,7.3,4.4c2.7,0.2,5.1-1.8,5.4-4.6l0.3-4
	c0.1-1.4-0.4-3.1-1.5-4.1c-1.2-1.1-3.2-1.2-4.8-1.3c-3.2-0.2-6.4-0.5-9.5-0.7c-2.6-0.2-7.5-1.6-8.2,2.2C65.4,43.4,65.7,44.4,66.3,45
	z"/>
<path class="st4" d="M101,57.3c-0.8,1.3-0.9,3.5-1.2,5c-0.5,2.1-1,4.3-1.6,6.4c-0.7,2.5-2.8,5.5-2.4,8.1c0.5,2.7,3.1,4.5,5.8,4.1
	l3.9-0.7c1.4-0.2,2.9-1.2,3.5-2.5c0.8-1.4,0.3-3.4,0-4.9c-0.6-3.1-1.1-6.3-1.7-9.4c-0.5-2.6-0.4-7.7-4.2-7.4
	C102.3,56,101.4,56.5,101,57.3z"/>
<path class="st4" d="M101,91.1c-1.5-0.1-3.5,0.7-5,1.2c-2.2,0.5-4.4,1-6.5,1.5c-2.5,0.5-6.2-0.1-8.4,1.5c-2.2,1.6-2.7,4.8-1.1,6.9
	l2.4,3.2c0.8,1.2,2.3,2.1,3.8,2c1.6,0,3.2-1.2,4.4-2.1c2.6-1.9,5.2-3.8,7.7-5.7c2.1-1.5,6.8-3.7,4.8-7.1
	C102.7,91.8,101.8,91.2,101,91.1z"/>
<circle class="st3" cx="75" cy="74" r="3.8"/>
<circle class="st5" cx="74.7" cy="74" r="10.6"/>
<circle class="st5" cx="74.7" cy="74" r="12.8"/>
<g id="Layer_2_1_">
	<g>
		<path class="st6" d="M21.8,97l-1-3.6l3.4-2.3L20,90.9l-0.7-2.3l3.4-2.3l-4.1-0.2l-1-3.6L29.3,83l0.8,2.7l-2.9,2l3.6,0.1l0.8,2.7
			L21.8,97z"/>
		<path class="st6" d="M17.3,76.1l0.1-3.6l3.8,0.2l0.1-2l-3.8-0.2l0.1-3.6l11.1,0.5V71l-4.1-0.2l-0.1,2l4.1,0.2l-0.1,3.6L17.3,76.1z
			"/>
		<path class="st6" d="M19,60.4l1.9-6.3l2.8,0.8l-0.9,2.9l1.2,0.4l0.9-2.8l2.7,0.8l-1,2.8l1.2,0.4l0.9-3l2.8,0.8l-1.9,6.4L19,60.4z"
			/>
		<path class="st6" d="M23.4,48.3l3.3-5.7l2.5,1.4l-1.5,2.6l1.1,0.6l1.5-2.6l2.4,1.4l-1.5,2.6l1.1,0.6l1.5-2.7l2.5,1.4L33,53.7
			L23.4,48.3z"/>
		<path class="st6" d="M30.4,37.5l2.5-2.7l6.1,5.5l2.1-2.3l2.2,2l-4.6,5L30.4,37.5z"/>
		<path class="st6" d="M43.8,35c0.2-0.1,0.5-0.2,0.7-0.3s0.4-0.2,0.7-0.3s0.5-0.3,0.7-0.4c0.4-0.3,0.5-0.6,0.3-0.9
			c-0.1-0.1-0.2-0.2-0.4-0.2s-0.5-0.1-0.8-0.1s-0.6,0-1-0.1c-0.4,0-0.7-0.1-1.1-0.2c-0.4-0.1-0.7-0.3-1-0.5s-0.6-0.5-0.9-0.9
			c-0.3-0.4-0.5-0.9-0.6-1.3s0-0.9,0.1-1.3s0.3-0.8,0.6-1.2c0.3-0.4,0.6-0.7,1.1-1c0.2-0.2,0.4-0.3,0.7-0.4c0.2-0.1,0.4-0.2,0.6-0.3
			c0.2-0.1,0.4-0.2,0.6-0.3l1.8,2.6c-0.1,0-0.2,0.1-0.3,0.1s-0.2,0.1-0.3,0.1c-0.1,0.1-0.2,0.1-0.3,0.2c-0.1,0-0.1,0.1-0.2,0.1
			c-0.1,0.1-0.1,0.1-0.2,0.2c-0.1,0.1-0.1,0.1-0.1,0.2s0,0.2,0.1,0.2c0.1,0.1,0.2,0.1,0.4,0.1s0.4,0,0.7,0.1s0.6,0.1,0.9,0.1
			c0.3,0,0.7,0.1,1,0.3c0.3,0.1,0.7,0.3,1,0.5s0.6,0.5,0.9,0.9c0.3,0.4,0.5,0.8,0.6,1.3c0.1,0.4,0.1,0.9,0,1.3
			c-0.1,0.4-0.3,0.9-0.6,1.3c-0.3,0.4-0.8,0.9-1.3,1.3c-0.3,0.2-0.7,0.4-1,0.6c-0.3,0.2-0.6,0.3-0.9,0.4c-0.3,0.1-0.6,0.3-0.8,0.3
			L43.8,35z"/>
		<path class="st6" d="M57.8,19l6.4-1.6l0.7,2.8L62,20.9l0.3,1.2l2.9-0.7l0.7,2.7L63,24.8l1,4.1l-3.5,0.9L57.8,19z"/>
		<path class="st6" d="M70.1,21.9c0-0.8,0.2-1.6,0.5-2.3c0.3-0.7,0.8-1.3,1.3-1.8s1.2-0.9,1.9-1.2c0.7-0.3,1.5-0.4,2.3-0.4
			s1.6,0.2,2.3,0.5c0.7,0.3,1.3,0.8,1.8,1.3s0.9,1.2,1.2,1.9c0.3,0.7,0.4,1.5,0.4,2.3s-0.2,1.6-0.5,2.3c-0.3,0.7-0.8,1.3-1.3,1.8
			s-1.2,0.9-1.9,1.2c-0.7,0.3-1.5,0.4-2.3,0.4s-1.6-0.2-2.3-0.5c-0.7-0.3-1.3-0.8-1.8-1.3s-0.9-1.2-1.2-1.9S70.1,22.7,70.1,21.9z
			 M73.7,22c0,0.3,0,0.6,0.2,0.9c0.1,0.3,0.3,0.5,0.5,0.8c0.2,0.2,0.5,0.4,0.7,0.5c0.3,0.1,0.6,0.2,0.9,0.2s0.6,0,0.9-0.2
			c0.3-0.1,0.5-0.3,0.8-0.5c0.2-0.2,0.4-0.5,0.5-0.7c0.1-0.3,0.2-0.6,0.2-0.9s0-0.6-0.2-0.9c-0.1-0.3-0.3-0.5-0.5-0.8
			c-0.2-0.2-0.5-0.4-0.7-0.5c-0.3-0.1-0.6-0.2-0.9-0.2s-0.6,0-0.9,0.2c-0.3,0.1-0.5,0.3-0.8,0.5c-0.2,0.2-0.4,0.5-0.5,0.7
			C73.7,21.4,73.7,21.7,73.7,22z"/>
		<path class="st6" d="M88.6,17.9l3.7,1.2c0.7,0.2,1.3,0.5,1.8,0.9s0.9,0.8,1.2,1.3c0.3,0.5,0.5,1,0.6,1.6s0,1.2-0.2,1.9
			c-0.2,0.5-0.4,1-0.7,1.3c-0.3,0.3-0.5,0.6-0.8,0.8c-0.3,0.2-0.6,0.4-0.9,0.5l0.9,4.1l-4-1.3L89.5,27l-0.9,2.7l-3.4-1.1L88.6,17.9z
			 M90.3,24.3l0.2,0.1c0.4,0.1,0.8,0.2,1.1,0.1c0.3-0.1,0.6-0.3,0.7-0.8c0.1-0.4,0.1-0.8-0.1-1c-0.2-0.3-0.5-0.5-0.9-0.6L91.1,22
			L90.3,24.3z"/>
		<path class="st6" d="M106.7,30.6c-0.1-0.3-0.2-0.5-0.4-0.8c-0.2-0.2-0.4-0.5-0.7-0.6c-0.3-0.2-0.5-0.3-0.8-0.4s-0.6-0.1-0.8,0
			c-0.3,0.1-0.5,0.2-0.8,0.4c-0.3,0.2-0.5,0.4-0.7,0.7c-0.2,0.3-0.3,0.6-0.4,0.9s-0.1,0.6,0,0.9s0.2,0.6,0.3,0.8
			c0.2,0.3,0.4,0.5,0.7,0.7c0.3,0.2,0.6,0.3,1,0.4c0.3,0,0.7,0,1-0.1l-0.8-0.6l1.3-1.9l3.5,2.4l-2.1,3.1c-0.5,0.2-1,0.4-1.5,0.5
			s-1,0.1-1.5,0.1s-1-0.1-1.5-0.3s-1-0.4-1.4-0.7c-0.7-0.5-1.2-1-1.6-1.7s-0.7-1.3-0.8-2.1c-0.1-0.7-0.1-1.5,0-2.2
			c0.1-0.8,0.5-1.5,0.9-2.2c0.5-0.7,1-1.2,1.6-1.6s1.3-0.7,2-0.9c0.7-0.2,1.4-0.2,2.2,0c0.7,0.1,1.5,0.4,2.1,0.9
			c0.5,0.4,0.9,0.7,1.2,1.1c0.3,0.4,0.5,0.7,0.7,1c0.2,0.4,0.3,0.7,0.4,1L106.7,30.6z"/>
		<path class="st6" d="M112.4,37.5c0.6-0.5,1.3-0.8,2.1-1c0.8-0.2,1.5-0.2,2.2-0.2c0.7,0.1,1.5,0.3,2.1,0.7c0.7,0.4,1.3,0.9,1.8,1.5
			s0.8,1.3,1,2.1s0.2,1.5,0.2,2.2c-0.1,0.7-0.3,1.5-0.7,2.1c-0.4,0.7-0.9,1.3-1.5,1.8s-1.3,0.8-2.1,1c-0.8,0.2-1.5,0.2-2.2,0.2
			s-1.5-0.3-2.1-0.7c-0.7-0.4-1.3-0.9-1.8-1.5s-0.8-1.3-1-2.1s-0.2-1.5-0.2-2.2c0.1-0.7,0.3-1.5,0.7-2.1
			C111.2,38.6,111.7,38,112.4,37.5z M114.5,40.3c-0.3,0.2-0.5,0.4-0.6,0.7s-0.2,0.6-0.3,0.9s0,0.6,0.1,0.9c0.1,0.3,0.2,0.6,0.4,0.8
			c0.2,0.3,0.4,0.5,0.7,0.6c0.3,0.1,0.6,0.2,0.9,0.3c0.3,0,0.6,0,0.9-0.1s0.6-0.2,0.8-0.4c0.3-0.2,0.5-0.4,0.6-0.7s0.2-0.6,0.3-0.9
			c0-0.3,0-0.6-0.1-0.9c-0.1-0.3-0.2-0.6-0.4-0.8c-0.2-0.3-0.4-0.5-0.7-0.6s-0.6-0.2-0.9-0.3c-0.3,0-0.6,0-0.9,0.1
			C115,39.9,114.8,40.1,114.5,40.3z"/>
		<path class="st6" d="M124.6,51.2l-0.8-1.9l2.7-1.1l3,7.2l-2.7,1.1l-0.8-1.9l-7.6,3.2l-1.4-3.4L124.6,51.2z"/>
		<path class="st6" d="M128.5,63.5l-0.3-2l2.9-0.5l1.2,7.7l-2.9,0.5l-0.3-2l-8.1,1.3l-0.6-3.6L128.5,63.5z"/>
		<path class="st6" d="M132.5,74.5l-0.4,6.6l-2.9-0.2l0.2-3l-1.2-0.1l-0.2,3l-2.8-0.2l0.2-3l-1.3-0.1l-0.2,3.1l-2.9-0.2l0.4-6.7
			L132.5,74.5z"/>
		<path class="st6" d="M131,87.5l-0.9,2.8l-5,1.6l4.1,1.4l-1.1,3.3l-10.6-3.5l0.9-2.8l5-1.6l-4.1-1.3l1.1-3.3L131,87.5z"/>
		<path class="st6" d="M99.1,115.4c-0.1,0-0.2,0.1-0.3,0.1c-0.1,0-0.2,0.1-0.3,0.1c-0.1,0-0.2,0.1-0.4,0.2c-0.2,0.1-0.3,0.2-0.2,0.4
			c0,0.1,0.1,0.1,0.2,0.1s0.2,0.1,0.3,0.1c0.1,0,0.3,0,0.4,0.1c0.2,0,0.3,0.1,0.5,0.1c0.2,0.1,0.3,0.1,0.4,0.3
			c0.1,0.1,0.3,0.3,0.4,0.4c0.1,0.2,0.2,0.4,0.2,0.6s0,0.4-0.1,0.6s-0.2,0.3-0.3,0.5c-0.1,0.2-0.3,0.3-0.5,0.4
			c-0.1,0.1-0.2,0.1-0.3,0.2c-0.1,0-0.2,0.1-0.3,0.1c-0.1,0-0.2,0.1-0.3,0.1l-0.7-1.2c0,0,0.1,0,0.1-0.1c0,0,0.1,0,0.1-0.1
			s0.1,0,0.1-0.1c0,0,0.1,0,0.1-0.1c0,0,0.1,0,0.1-0.1s0.1-0.1,0.1-0.1v-0.1c0,0-0.1-0.1-0.2-0.1s-0.2,0-0.3-0.1
			c-0.1,0-0.3-0.1-0.4-0.1c-0.2,0-0.3-0.1-0.5-0.2s-0.3-0.2-0.4-0.3s-0.3-0.3-0.4-0.5S96,116.2,96,116s0-0.4,0-0.6
			c0.1-0.2,0.2-0.4,0.3-0.6c0.2-0.2,0.4-0.3,0.7-0.5c0.2-0.1,0.3-0.2,0.5-0.2c0.2-0.1,0.3-0.1,0.4-0.1s0.3-0.1,0.4-0.1L99.1,115.4z"
			/>
		<path class="st6" d="M96.1,120.8l-1.6,0.7l-2-4.6l1.6-0.7L96.1,120.8z"/>
		<path class="st6" d="M92.4,122.3l-1.3,0.4l-1.9-1.4l0.6,1.8l-1.5,0.5l-1.5-4.8l1.3-0.4l1.9,1.4l-0.6-1.8l1.5-0.5L92.4,122.3z"/>
		<path class="st6" d="M85.8,121.6c0.1,0.4,0.1,0.8,0,1.1c-0.1,0.3-0.2,0.6-0.4,0.9c-0.2,0.3-0.4,0.5-0.7,0.7
			c-0.3,0.2-0.6,0.3-1,0.4c-0.3,0.1-0.5,0.1-0.8,0.1c-0.2,0-0.4,0-0.6-0.1c-0.2,0-0.4-0.1-0.5-0.2l0.5-1.5c0.1,0,0.2,0.1,0.3,0.1
			c0.1,0,0.2,0,0.3,0.1c0.1,0,0.3,0,0.4,0c0.2,0,0.3-0.1,0.4-0.2s0.2-0.2,0.3-0.3c0.1-0.1,0.1-0.2,0.2-0.4c0-0.1,0-0.3,0-0.4
			s-0.1-0.3-0.2-0.4s-0.2-0.2-0.3-0.3c-0.1-0.1-0.2-0.1-0.4-0.2c-0.1,0-0.3,0-0.5,0s-0.3,0.1-0.4,0.1c-0.1,0.1-0.2,0.1-0.3,0.2
			c-0.1,0.1-0.2,0.2-0.2,0.2l-1-1.2c0.1-0.1,0.3-0.3,0.4-0.4s0.3-0.2,0.5-0.3c0.2-0.1,0.5-0.2,0.7-0.2c0.4-0.1,0.7-0.1,1.1,0
			c0.3,0.1,0.7,0.2,0.9,0.4c0.3,0.2,0.5,0.4,0.7,0.7C85.6,120.9,85.7,121.3,85.8,121.6z"/>
		<path class="st6" d="M79.8,125.1l-2.9,0.2l-0.1-1.3l1.4-0.1v-0.6l-1.3,0.1l-0.1-1.2l1.3-0.1v-0.6l-1.4,0.1l-0.1-1.3l3-0.2
			L79.8,125.1z"/>
		<path class="st6" d="M70.9,122.5c-0.1,0.2-0.2,0.3-0.2,0.4s-0.1,0.2-0.1,0.3c0,0.2,0,0.3,0.1,0.4s0.2,0.2,0.4,0.2h0.1h0.1h0.1
			l-0.1,1.4c-0.1,0-0.1,0-0.2,0s-0.1,0-0.2,0s-0.1,0-0.2,0s-0.1,0-0.2,0c-0.2,0-0.5-0.1-0.7-0.1c-0.2-0.1-0.4-0.2-0.6-0.3
			c-0.2-0.1-0.3-0.3-0.4-0.5s-0.1-0.5-0.1-0.7c0-0.1,0-0.3,0.1-0.4c0-0.1,0.1-0.3,0.2-0.4s0.2-0.3,0.3-0.5c0.1-0.2,0.2-0.4,0.4-0.6
			l0.1-0.2l-0.9-0.1l0.5-1.3l2.9,0.3L70.9,122.5z"/>
		<path class="st6" d="M63.3,121.4c0.2-0.8,0.5-1.4,0.9-1.8c0.4-0.4,1-0.5,1.6-0.4s1.1,0.4,1.3,1c0.3,0.5,0.3,1.2,0.1,2
			c-0.2,0.8-0.5,1.4-0.9,1.8s-1,0.5-1.6,0.4s-1.1-0.4-1.3-1C63.2,122.9,63.1,122.3,63.3,121.4z M64.8,121.7
			c-0.2,0.8-0.1,1.2,0.2,1.3s0.5-0.3,0.7-1.1c0.2-0.8,0.1-1.2-0.2-1.3C65.2,120.6,64.9,121,64.8,121.7z"/>
		<path class="st6" d="M57.7,119.7c0.3-0.8,0.6-1.4,1.1-1.7c0.5-0.3,1-0.4,1.6-0.2c0.6,0.2,1,0.6,1.2,1.1s0.2,1.2-0.1,2
			s-0.6,1.4-1.1,1.7s-1,0.4-1.6,0.2c-0.6-0.2-1-0.6-1.2-1.1S57.5,120.5,57.7,119.7z M59.2,120.2c-0.2,0.7-0.2,1.2,0.1,1.3
			c0.3,0.1,0.6-0.2,0.8-1s0.2-1.2-0.1-1.3C59.7,119.1,59.4,119.4,59.2,120.2z"/>
		<path class="st6" d="M56.4,118.5c-0.1,0.2-0.2,0.4-0.3,0.5c-0.1,0.2-0.3,0.3-0.4,0.5c-0.1,0.1-0.3,0.3-0.5,0.4s-0.3,0.2-0.5,0.3
			c-0.4,0.2-0.7,0.4-1.1,0.5l-1.6-0.8c0.2-0.1,0.3-0.1,0.5-0.2c0.1-0.1,0.3-0.2,0.5-0.3c0.2-0.1,0.4-0.2,0.6-0.4
			c-0.2-0.1-0.3-0.3-0.5-0.5c-0.1-0.2-0.2-0.4-0.3-0.6s-0.1-0.4,0-0.6c0-0.2,0.1-0.4,0.2-0.6c0.1-0.2,0.3-0.4,0.4-0.6
			c0.2-0.2,0.4-0.3,0.6-0.4c0.2-0.1,0.5-0.1,0.7-0.1s0.5,0.1,0.7,0.2c0.3,0.1,0.5,0.3,0.7,0.5s0.3,0.4,0.4,0.6
			c0.1,0.2,0.1,0.5,0.1,0.7C56.6,118,56.5,118.2,56.4,118.5z M55.1,117.8c0.1-0.1,0.1-0.2,0-0.4c0-0.1-0.1-0.2-0.2-0.3
			c-0.1-0.1-0.2-0.1-0.3,0c-0.1,0-0.2,0.1-0.3,0.2s-0.1,0.2,0,0.3c0,0.1,0.1,0.2,0.2,0.3c0.1,0.1,0.2,0.1,0.3,0
			C54.9,118,55,117.9,55.1,117.8z"/>
	</g>
</g>
</svg>
